<?xml version="1.0" encoding="UTF-8"?>
<svg xmlns="http://www.w3.org/2000/svg" viewBox="0 0 175.216 175.552">
  <defs>
    <linearGradient id="whatsapp-gradient" x1="85.915" y1="32.567" x2="85.915" y2="137.092" gradientUnits="userSpaceOnUse">
      <stop offset="0" stop-color="#57d163"/>
      <stop offset="1" stop-color="#23b33a"/>
    </linearGradient>
  </defs>
  <path fill="#25d366" d="M87.184 0C39.168 0 0 39.168 0 87.184c0 19.344 6.264 37.188 16.884 51.696L5.808 175.552l38.592-10.128c13.704 8.844 30.072 14.004 47.784 14.004 48.012 0 87.032-39.024 87.032-87.036C179.216 44.376 140.196 0 92.184 0h-5z"/>
  <path fill="url(#whatsapp-gradient)" d="M87.606 14.184c-40.32 0-73.104 32.784-73.104 73.104 0 13.776 3.888 26.592 10.548 37.596L14.184 161.06l37.176-9.768c10.392 5.976 22.392 9.384 35.232 9.384 40.32 0 73.104-32.784 73.104-73.104s-32.784-73.104-73.104-73.104l.014-.284z"/>
  <path fill="#fff" fill-rule="evenodd" d="M66.252 52.848c-1.656-3.684-3.408-3.768-4.992-3.828-1.296-.06-2.772-.048-4.248-.048s-3.888.552-5.928 2.748c-2.04 2.196-7.788 7.608-7.788 18.552 0 10.944 7.968 21.528 9.084 23.016s15.372 24.672 38.016 33.588c18.816 7.416 22.644 5.94 26.736 5.568 4.092-.372 13.2-5.388 15.06-10.596 1.86-5.208 1.86-9.672 1.296-10.596-.564-.924-2.04-1.476-4.248-2.58-2.208-1.104-13.044-6.444-15.072-7.176s-3.516-.924-4.992 1.104c-1.476 2.028-5.712 7.176-7.008 8.652-1.296 1.476-2.592 1.668-4.8.552-2.208-1.104-9.312-3.432-17.736-10.944-6.564-5.844-10.992-13.068-12.288-15.276s-.132-3.396 1.056-4.488c1.068-1.008 2.376-2.616 3.564-3.924s1.584-2.244 2.376-3.732c.792-1.476.396-2.772-.132-3.888-.528-1.116-4.8-11.64-6.576-15.888z"/>
</svg>
