<?xml version="1.0" encoding="UTF-8"?>
<svg xmlns="http://www.w3.org/2000/svg" viewBox="0 0 100 100">
  <defs>
    <linearGradient id="grad" x1="0%" y1="0%" x2="100%" y2="100%">
      <stop offset="0%" stop-color="#25D366"/>
      <stop offset="100%" stop-color="#128C7E"/>
    </linearGradient>
  </defs>
  <g fill="none" fill-rule="evenodd">
    <path d="M20 80 L24 64 C16 54 12 42 12 30 C12 13 26 0 44 0 C62 0 76 13 76 30 C76 47 62 60 44 60 C35 60 28 57 22 52 L20 80 Z" fill="#000" opacity="0.12"/>
    <circle cx="50" cy="50" r="42" fill="url(#grad)"/>
    <path d="M31 72 L33 60 C25 52 20 43 20 33 C20 19 31 8 45 8 C59 8 70 19 70 33 C70 47 59 58 45 58 C38 58 32 56 27 52 L31 72 Z" fill="#000" opacity="0.18"/>
    <path d="M44 27c-3.5 0-6.5 3-6.5 6.6 0 1 .2 2 .6 2.9.7 1.6 2.1 3.8 5 6.5 2.9 2.7 5.3 4.1 7.1 4.9.9.4 1.9.6 2.9.6 3.6 0 6.6-2.9 6.6-6.5 0-.9-.2-1.8-.6-2.6-.3-.6-1-.8-1.6-.5l-3.7 1.7c-.5.2-1.1.1-1.5-.3l-3.3-3.2c-.4-.4-.5-1-.3-1.5l1.7-3.7c.3-.6.1-1.3-.5-1.6-.8-.4-1.7-.6-2.6-.6h0z" fill="#fff"/>
  </g>
</svg>
